{
	"asset":{
		"generator":"Khronos glTF Blender I/O v4.2.70",
		"version":"2.0"
	},
	"scene":0,
	"scenes":[
		{
			"name":"Scene",
			"nodes":[
				0,
				1,
				2,
				3,
				4,
				5
			]
		}
	],
	"nodes":[
		{
			"mesh":0,
			"name":"Cube",
			"scale":[
				0.5508700013160706,
				1.0231002569198608,
				0.5508700013160706
			],
			"translation":[
				0.183076411485672,
				4.399533271789551,
				-0.0773158073425293
			]
		},
		{
			"mesh":1,
			"name":"Cylinder",
			"rotation":[
				0.6630331873893738,
				0,
				0,
				0.7485899925231934
			],
			"scale":[
				0.5508700013160706,
				0.5508700013160706,
				0.5508700013160706
			],
			"translation":[
				0.183076411485672,
				4.399533271789551,
				-0.0773158073425293
			]
		},
		{
			"mesh":2,
			"name":"Cylinder.001",
			"rotation":[
				0.675646185874939,
				0,
				0,
				0.7372260093688965
			],
			"scale":[
				0.5508700013160706,
				0.5508700609207153,
				0.5508700609207153
			],
			"translation":[
				0.183076411485672,
				5.694160461425781,
				-0.29207515716552734
			]
		},
		{
			"mesh":3,
			"name":"Cylinder.002",
			"rotation":[
				0.675646185874939,
				0,
				0,
				0.7372260093688965
			],
			"scale":[
				0.5508700013160706,
				0.5508700609207153,
				0.5508700609207153
			],
			"translation":[
				0.183076411485672,
				7.000312805175781,
				-0.2569811940193176
			]
		},
		{
			"mesh":4,
			"name":"Cube.001",
			"rotation":[
				0,
				0,
				-0.4226183295249939,
				0.9063078761100769
			],
			"scale":[
				0.5789899826049805,
				0.9201521277427673,
				0.2111547440290451
			],
			"translation":[
				-1.7449686527252197,
				3.612339973449707,
				-0.0773158073425293
			]
		},
		{
			"mesh":5,
			"name":"Cube.002",
			"rotation":[
				0,
				0,
				0.4226183295249939,
				0.9063078761100769
			],
			"scale":[
				0.5789899826049805,
				0.9201521277427673,
				0.2111547440290451
			],
			"translation":[
				2.111121416091919,
				3.6123456954956055,
				-0.0773158073425293
			]
		}
	],
	"materials":[
		{
			"doubleSided":true,
			"name":"Material",
			"pbrMetallicRoughness":{
				"baseColorFactor":[
					0.800000011920929,
					0.800000011920929,
					0.800000011920929,
					1
				],
				"metallicFactor":0,
				"roughnessFactor":0.5
			}
		}
	],
	"meshes":[
		{
			"name":"Cube",
			"primitives":[
				{
					"attributes":{
						"POSITION":0,
						"NORMAL":1,
						"TEXCOORD_0":2
					},
					"indices":3,
					"material":0
				}
			]
		},
		{
			"name":"Cylinder",
			"primitives":[
				{
					"attributes":{
						"POSITION":4,
						"NORMAL":5,
						"TEXCOORD_0":6
					},
					"indices":7
				}
			]
		},
		{
			"name":"Cylinder.001",
			"primitives":[
				{
					"attributes":{
						"POSITION":8,
						"NORMAL":9,
						"TEXCOORD_0":10
					},
					"indices":7
				}
			]
		},
		{
			"name":"Cylinder.002",
			"primitives":[
				{
					"attributes":{
						"POSITION":11,
						"NORMAL":12,
						"TEXCOORD_0":13
					},
					"indices":7
				}
			]
		},
		{
			"name":"Cube.002",
			"primitives":[
				{
					"attributes":{
						"POSITION":14,
						"NORMAL":15,
						"TEXCOORD_0":16
					},
					"indices":17
				}
			]
		},
		{
			"name":"Cube.003",
			"primitives":[
				{
					"attributes":{
						"POSITION":18,
						"NORMAL":19,
						"TEXCOORD_0":20
					},
					"indices":21
				}
			]
		}
	],
	"accessors":[
		{
			"bufferView":0,
			"componentType":5126,
			"count":240,
			"max":[
				3.560983180999756,
				6.149338245391846,
				3.561159133911133
			],
			"min":[
				-3.5613350868225098,
				-5.10433292388916,
				-3.561159133911133
			],
			"type":"VEC3"
		},
		{
			"bufferView":1,
			"componentType":5126,
			"count":240,
			"type":"VEC3"
		},
		{
			"bufferView":2,
			"componentType":5126,
			"count":240,
			"type":"VEC2"
		},
		{
			"bufferView":3,
			"componentType":5123,
			"count":396,
			"type":"SCALAR"
		},
		{
			"bufferView":4,
			"componentType":5126,
			"count":1088,
			"max":[
				1.1262171268463135,
				-0.9854488968849182,
				2.6776833534240723
			],
			"min":[
				-1.1292626857757568,
				-3.4311764240264893,
				0.24369025230407715
			],
			"type":"VEC3"
		},
		{
			"bufferView":5,
			"componentType":5126,
			"count":1088,
			"type":"VEC3"
		},
		{
			"bufferView":6,
			"componentType":5126,
			"count":1088,
			"type":"VEC2"
		},
		{
			"bufferView":7,
			"componentType":5123,
			"count":1632,
			"type":"SCALAR"
		},
		{
			"bufferView":8,
			"componentType":5126,
			"count":1088,
			"max":[
				1.1262171268463135,
				-0.9854488968849182,
				2.6776833534240723
			],
			"min":[
				-1.1292626857757568,
				-3.4311764240264893,
				0.24369025230407715
			],
			"type":"VEC3"
		},
		{
			"bufferView":9,
			"componentType":5126,
			"count":1088,
			"type":"VEC3"
		},
		{
			"bufferView":10,
			"componentType":5126,
			"count":1088,
			"type":"VEC2"
		},
		{
			"bufferView":11,
			"componentType":5126,
			"count":1088,
			"max":[
				1.1262171268463135,
				-0.9854488968849182,
				2.6776833534240723
			],
			"min":[
				-1.1292626857757568,
				-3.4311764240264893,
				0.24369025230407715
			],
			"type":"VEC3"
		},
		{
			"bufferView":12,
			"componentType":5126,
			"count":1088,
			"type":"VEC3"
		},
		{
			"bufferView":13,
			"componentType":5126,
			"count":1088,
			"type":"VEC2"
		},
		{
			"bufferView":14,
			"componentType":5126,
			"count":660,
			"max":[
				2.603461980819702,
				1,
				2.608844518661499
			],
			"min":[
				-2.9331655502319336,
				-2.604423999786377,
				-2.608844518661499
			],
			"type":"VEC3"
		},
		{
			"bufferView":15,
			"componentType":5126,
			"count":660,
			"type":"VEC3"
		},
		{
			"bufferView":16,
			"componentType":5126,
			"count":660,
			"type":"VEC2"
		},
		{
			"bufferView":17,
			"componentType":5123,
			"count":1176,
			"type":"SCALAR"
		},
		{
			"bufferView":18,
			"componentType":5126,
			"count":657,
			"max":[
				2.856729507446289,
				1,
				2.608844518661499
			],
			"min":[
				-2.6171131134033203,
				-2.6116318702697754,
				-2.608844518661499
			],
			"type":"VEC3"
		},
		{
			"bufferView":19,
			"componentType":5126,
			"count":657,
			"type":"VEC3"
		},
		{
			"bufferView":20,
			"componentType":5126,
			"count":657,
			"type":"VEC2"
		},
		{
			"bufferView":21,
			"componentType":5123,
			"count":1176,
			"type":"SCALAR"
		}
	],
	"bufferViews":[
		{
			"buffer":0,
			"byteLength":2880,
			"byteOffset":0,
			"target":34962
		},
		{
			"buffer":0,
			"byteLength":2880,
			"byteOffset":2880,
			"target":34962
		},
		{
			"buffer":0,
			"byteLength":1920,
			"byteOffset":5760,
			"target":34962
		},
		{
			"buffer":0,
			"byteLength":792,
			"byteOffset":7680,
			"target":34963
		},
		{
			"buffer":0,
			"byteLength":13056,
			"byteOffset":8472,
			"target":34962
		},
		{
			"buffer":0,
			"byteLength":13056,
			"byteOffset":21528,
			"target":34962
		},
		{
			"buffer":0,
			"byteLength":8704,
			"byteOffset":34584,
			"target":34962
		},
		{
			"buffer":0,
			"byteLength":3264,
			"byteOffset":43288,
			"target":34963
		},
		{
			"buffer":0,
			"byteLength":13056,
			"byteOffset":46552,
			"target":34962
		},
		{
			"buffer":0,
			"byteLength":13056,
			"byteOffset":59608,
			"target":34962
		},
		{
			"buffer":0,
			"byteLength":8704,
			"byteOffset":72664,
			"target":34962
		},
		{
			"buffer":0,
			"byteLength":13056,
			"byteOffset":81368,
			"target":34962
		},
		{
			"buffer":0,
			"byteLength":13056,
			"byteOffset":94424,
			"target":34962
		},
		{
			"buffer":0,
			"byteLength":8704,
			"byteOffset":107480,
			"target":34962
		},
		{
			"buffer":0,
			"byteLength":7920,
			"byteOffset":116184,
			"target":34962
		},
		{
			"buffer":0,
			"byteLength":7920,
			"byteOffset":124104,
			"target":34962
		},
		{
			"buffer":0,
			"byteLength":5280,
			"byteOffset":132024,
			"target":34962
		},
		{
			"buffer":0,
			"byteLength":2352,
			"byteOffset":137304,
			"target":34963
		},
		{
			"buffer":0,
			"byteLength":7884,
			"byteOffset":139656,
			"target":34962
		},
		{
			"buffer":0,
			"byteLength":7884,
			"byteOffset":147540,
			"target":34962
		},
		{
			"buffer":0,
			"byteLength":5256,
			"byteOffset":155424,
			"target":34962
		},
		{
			"buffer":0,
			"byteLength":2352,
			"byteOffset":160680,
			"target":34963
		}
	],
	"buffers":[
		{
			"byteLength":163032,
			"uri":"Rocket.bin"
		}
	]
}
